<?xml version="1.0" standalone="no"?>
<!DOCTYPE svg PUBLIC "-//W3C//DTD SVG 20010904//EN"
 "http://www.w3.org/TR/2001/REC-SVG-20010904/DTD/svg10.dtd">
<svg version="1.0" xmlns="http://www.w3.org/2000/svg"
 width="64.000000pt" height="64.000000pt" viewBox="0 0 64.000000 64.000000"
 preserveAspectRatio="xMidYMid meet">

<g transform="translate(0.000000,64.000000) scale(0.100000,-0.100000)"
fill="#000000" stroke="none">
<path d="M231 613 c-86 -31 -161 -136 -161 -228 0 -53 28 -128 64 -170 46 -54
56 -38 12 19 -61 80 -70 169 -27 254 25 48 55 76 111 101 146 67 320 -47 320
-209 0 -56 -22 -109 -64 -157 -29 -33 -35 -44 -21 -42 11 2 34 23 52 47 152
200 -48 469 -286 385z"/>
<path d="M245 551 c-69 -32 -115 -102 -115 -173 0 -40 30 -106 59 -132 34 -31
37 -10 3 28 -56 64 -55 151 4 216 20 21 51 44 71 51 76 25 168 -12 200 -81 19
-43 33 -51 33 -21 0 10 -18 38 -39 63 -59 67 -138 85 -216 49z"/>
<path d="M310 475 c-18 -22 -19 -87 -1 -109 13 -15 15 -15 27 1 17 23 18 84 1
107 -12 17 -14 17 -27 1z"/>
<path d="M240 426 c0 -8 9 -24 21 -37 l21 -24 -6 25 c-3 14 -6 31 -6 38 0 6
-7 12 -15 12 -8 0 -15 -6 -15 -14z"/>
<path d="M368 405 c-5 -40 -5 -40 16 -19 20 19 21 54 2 54 -8 0 -15 -14 -18
-35z"/>
<path d="M206 391 c-7 -11 22 -37 51 -45 20 -6 19 -4 -7 23 -30 33 -36 36 -44
22z"/>
<path d="M395 370 c-30 -32 -28 -37 8 -19 22 12 37 28 37 42 0 15 -17 6 -45
-23z"/>
<path d="M490 380 c0 -5 5 -10 10 -10 6 0 10 5 10 10 0 6 -4 10 -10 10 -5 0
-10 -4 -10 -10z"/>
<path d="M476 317 c-3 -13 -17 -36 -31 -51 -14 -16 -24 -33 -23 -38 6 -16 78
70 78 92 0 28 -17 25 -24 -3z"/>
<path d="M292 278 c-15 -15 -15 -41 0 -56 9 -9 7 -12 -9 -12 -12 0 -32 -15
-48 -36 -15 -19 -38 -39 -52 -45 -13 -5 -23 -15 -20 -22 7 -19 49 -9 79 20
l28 27 0 -37 c0 -34 -3 -37 -40 -47 -29 -8 -40 -16 -40 -30 0 -19 8 -20 130
-20 122 0 130 1 130 20 0 14 -11 22 -40 30 -37 10 -40 13 -40 47 l0 36 23 -20
c38 -35 68 -47 78 -32 10 16 2 29 -16 29 -8 0 -29 18 -46 40 -18 22 -41 40
-51 40 -16 0 -16 3 -6 20 24 37 -29 79 -60 48z"/>
</g>
</svg>
